PathFileType	4	(X/Y/Z)	C:/Users/beibeiliu/ov580/test_trc/User1\sequence.2_training_dense_right.trc
DataRate	CameraRate	NumFrames	NumMarkers	Units	OrigDataRate	OrigDataStartFrame	OrigNumFrames
120	120	20	19	mm	120	184	244
Frame#	Time	ThumbCMC			ThumbMCP			ThumbIP			ThumbTip			IndexMCP			IndexPIP			IndexTip			MiddleMCP			MiddlePIP			MiddleTip			RingMCP			RingPIP			RingTip			PinkyMCP			PinkyPIP			PinkyTip			BackHand1			BackHand2			BackHand3	
		X0	Y0	Z0	X1	Y1	Z1	X2	Y2	Z2	X3	Y3	Z3	X4	Y4	Z4	X5	Y5	Z5	X6	Y6	Z6	X7	Y7	Z7	X8	Y8	Z8	X9	Y9	Z9	X10	Y10	Z10	X11	Y11	Z11	X12	Y12	Z12	X13	Y13	Z13	X14	Y14	Z14	X15	Y15	Z15	X16	Y16	Z16	X17	Y17	Z17	X18	Y18	Z18	
183	1.525	101.531	58.5554	50.9996	88.3917	24.3949	52.6056	79.9825	-1.5819	43.3263	83.1394	-27.3737	32.8026	82.1498	20.956	-22.2464	77.0589	-10.8101	-32.9749	87.7529	-38.7588	-24.2768	104.522	21.5526	-41.7229	100.97	-12.7917	-53.1422	111.714	-45.6417	-39.6239	126.383	24.8524	-48.1418	125.36	-8.07592	-57.4122	131.394	-33.2858	-43.0213	159.926	34.2998	-36.0513	157.476	9.96533	-51.5554	148.724	-20.7163	-47.0668	138.308	70.2432	-9.00385	151.017	93.4765	16.2013	110.426	77.5084	17.2803	
184	1.53333	96.7192	59.9345	50.4437	84.2367	28.0045	51.3673	74.4288	1.46423	44.3385	77.3075	-22.023	35.7766	76.3004	18.3824	-20.477	73.1742	-13.5093	-29.8605	82.7519	-39.7581	-18.1489	101.872	16.3009	-40.363	98.7803	-14.0153	-47.8158	102.777	-50.4579	-30.4308	125.781	19.5079	-41.0399	119.574	-13.9262	-49.9225	126.422	-40.2023	-31.9948	155.296	24.86	-30.5576	157.022	-1.12298	-45.6428	147.787	-28.8692	-38.1006	139.723	64.2152	-5.32543	150.01	87.2474	15.4175	114.215	76.4925	17.5193	
185	1.54167	99.8492	62.9315	50.1437	79.8218	33.2129	56.2003	71.5729	7.54073	45.6815	69.3979	-19.5894	39.0429	75.4885	16.439	-21.6098	69.2157	-11.2318	-28.5231	76.348	-43.1043	-9.95859	96.5512	10.8619	-38.3616	93.3823	-22.9084	-42.0886	94.5472	-50.238	-22.2976	124.416	7.46792	-40.237	120.317	-20.7105	-44.5334	116.28	-45.9246	-21.7662	153.224	14.4474	-26.1756	149.034	-14.7391	-36.6337	139.674	-37.9078	-24.177	141.162	56.14	-7.1269	158.218	81.1247	17.5981	117.084	76.064	16.9432	
186	1.55	101.067	65.7958	47.7113	76.433	37.5329	53.1555	64.8286	11.4256	43.7339	59.5024	-14.2204	41.3181	75.1855	18.1456	-20.2435	64.6213	-13.7546	-25.4396	66.8186	-40.9284	-6.69971	96.6439	7.81949	-34.9441	85.3201	-23.924	-38.2957	83.5556	-55.1125	-11.0475	123.647	-1.73244	-36.6476	114.162	-31.1468	-34.9908	107.682	-50.6046	-9.90559	154.105	-1.169	-24.5115	140.362	-25.3766	-26.2599	125.303	-44.0583	-9.93802	144.552	49.7618	-5.56285	162.575	72.8246	12.9863	118.859	70.5796	9.23722	
187	1.55833	104.302	68.2725	44.3306	77.0824	42.5033	48.471	59.6845	20.717	46.6746	50.0109	-5.45886	44.6805	78.1279	16.5547	-22.0709	59.0463	-14.4011	-24.7938	58.7188	-39.2624	-6.02519	95.3968	1.39239	-32.2308	76.3877	-30.8233	-29.036	73.2664	-54.2778	-1.14648	117.015	-10.1663	-31.4176	102.762	-36.4793	-26.1949	96.3626	-52.8209	4.958	147.341	-15.2435	-18.3984	132.456	-39.8178	-13.9879	112.121	-48.6378	9.11751	150.293	40.4739	-7.06575	164.738	61.9358	10.5051	124.023	65.9899	7.12976	
188	1.56667	108.122	69.3609	40.1659	74.8743	51.4775	49.0044	56.0708	27.3178	42.0106	43.9136	3.90593	43.9596	73.766	16.6538	-23.6556	57.7651	-12.7093	-23.3043	50.417	-34.7301	-4.05752	89.2925	-3.15837	-31.5777	75.2436	-31.3503	-26.2989	61.9028	-51.2806	6.92718	110.574	-14.1978	-25.5463	94.4679	-41.8011	-17.6008	86.651	-51.1487	14.8959	136.531	-19.4855	-11.1463	117.175	-42.0213	-4.13596	97.7531	-42.1596	21.9177	150.323	32.3564	-4.07531	166.045	53.3709	9.19109	133.583	63.0161	5.61505	
189	1.575	106.19	71.6527	35.0267	73.8098	55.6648	41.9789	51.0814	34.5512	38.9473	41.4271	11.0823	39.8391	74.3702	19.7989	-23.4197	51.2076	-7.18946	-24.9865	38.9787	-25.2473	-5.4424	85.2361	-3.79585	-30.9128	60.0043	-28.8456	-22.434	48.0844	-43.4017	6.22373	101.749	-19.8807	-23.2079	80.6705	-39.9196	-11.1172	76.1753	-46.1282	20.0503	131.428	-26.3785	-5.25196	104.35	-41.3457	3.90665	89.5445	-36.117	27.0399	149.497	24.3667	-6.04795	168.473	46.0637	10.3007	132.169	59.9758	3.33963	
190	1.58333	113.573	73.3594	32.4467	76.23	60.9711	37.0096	53.5692	43.8673	36.0026	38.0354	18.5173	35.9248	71.0853	21.2856	-27.4338	48.6338	-1.84857	-27.6266	31.3764	-19.7892	-5.94098	83.6273	-2.06501	-29.9152	54.9191	-26.569	-21.6964	38.7163	-37.9303	9.1424	93.987	-21.155	-20.9155	71.444	-37.4742	-8.96463	61.5557	-39.4884	25.1111	119.67	-26.5709	-3.56753	94.2419	-41.5228	6.72446	79.1595	-32.2987	30.9172	145.131	15.6003	-6.50346	170.065	37.9318	11.5162	134.074	56.7922	0.0409403	
191	1.59167	114.653	70.3174	24.6437	82.4715	66.408	33.5034	51.358	49.8613	29.9042	36.4427	31.4907	34.6154	70.7748	19.1331	-30.5883	46.7877	2.71318	-30.3339	26.7812	-8.56033	-11.7581	75.7661	-4.74354	-31.5839	49.4425	-19.8501	-24.2192	27.7284	-25.9123	5.73015	91.5732	-20.4175	-20.0104	61.4702	-32.1475	-8.50437	48.6594	-30.2097	21.5649	110.494	-33.1383	-1.03071	84.0373	-42.1863	10.5295	65.9751	-24.0874	31.2932	142.159	14.3401	-7.94292	167.12	30.1657	10.871	136.014	47.1739	-3.35033	
192	1.6	118.828	72.666	21.2278	81.0184	74.1029	29.1044	56.3138	56.4636	23.9623	36.7564	39.7034	29.9624	70.6189	28.0835	-34.2566	47.6963	8.81692	-33.8186	20.8841	0.964237	-11.7236	73.2978	-0.851418	-33.3877	41.724	-10.3799	-25.3556	18.9269	-13.3563	2.24854	80.3288	-17.2461	-21.174	54.6773	-28.4388	-9.54388	37.4201	-19.6384	19.9397	97.8308	-28.6914	-1.34503	72.0837	-35.5969	10.124	55.2112	-23.6211	30.1716	138.797	8.49831	-5.95687	163.255	22.4267	8.69841	141.051	47.9737	-3.55503	
193	1.60833	125.61	71.0188	20.7271	83.5574	76.2298	22.7451	60.1758	67.4322	23.2743	36.9024	48.1461	25.5095	74.8874	31.8514	-36.7976	45.585	17.7695	-39.5054	18.4315	14.6217	-17.4367	69.7753	5.49594	-36.1286	40.752	-1.48406	-31.3484	16.5002	-1.06109	-3.35258	80.7689	-14.1691	-21.8262	45.9166	-17.212	-12.0653	30.173	-10.9104	16.5367	94.4208	-29.9151	1.47661	62.9303	-30.5093	10.3709	46.3008	-14.5067	29.2647	135.503	1.88544	-8.89869	165.833	13.3147	11.5634	143.039	43.3941	-4.27178	
194	1.61667	127.854	73.5005	17.3794	88.993	82.3689	19.5834	60.7751	73.4935	16.0635	40.9983	56.4718	20.4049	74.3031	31.6336	-41.8996	44.2118	23.9853	-43.8779	21.5276	20.2622	-22.2679	68.9788	6.94316	-40.3223	37.2306	2.0442	-33.4894	14.0579	7.55626	-7.06702	74.9107	-10.8326	-24.1569	44.0637	-14.0076	-15.2409	28.3608	-6.40223	10.6124	83.6504	-23.3534	-2.91302	60.4087	-25.991	6.94252	42.4607	-5.35743	20.3388	131.37	2.95691	-8.39773	162.188	10.3228	9.8637	142.293	41.1772	-8.30244	
195	1.625	129.516	70.4842	13.9347	93.076	82.2158	14.9094	67.2304	77.181	12.8394	45.4876	60.316	13.9826	76.2265	36.8781	-45.5559	45.977	31.6865	-49.9711	18.8486	35.0332	-28.3828	70.1433	15.2924	-44.9183	36.6606	12.1622	-39.8554	14.8638	13.9852	-13.3859	71.8445	-8.25759	-26.8395	41.9377	-7.37066	-20.2132	25.5581	4.01472	6.15701	79.7313	-21.9482	-4.24746	55.4419	-20.8271	4.99432	37.0503	4.77636	17.4532	131.728	6.07901	-7.19843	158.679	8.04359	11.7986	143.828	38.5968	-6.26036	
196	1.63333	133.61	70.4961	14.4798	97.6391	84.4567	11.8844	71.3205	80.4228	8.21168	45.1835	69.7914	9.3233	80.3196	41.1334	-51.029	50.5209	37.4803	-54.6206	23.3322	42.7878	-36.8478	71.3292	17.6168	-48.5716	37.8435	18.1108	-46.045	13.2718	26.7908	-17.7792	72.7046	-1.11438	-32.6685	39.5317	-1.19531	-25.1925	24.824	11.0142	0.436858	78.3395	-15.3872	-7.65752	49.1923	-11.1715	1.65009	32.4369	6.11185	12.8539	130.033	-1.0545	-10.0636	158.367	4.12041	15.6338	144.497	35.582	-6.82553	
197	1.64167	137.865	69.2588	14.0992	101.271	88.2191	7.59204	74.044	86.8973	1.43864	51.6552	76.6509	4.64844	86.7133	43.4784	-52.6862	52.8034	42.2596	-59.494	29.4987	46.6434	-42.4943	79.0962	22.1237	-51.6218	44.9672	24.7093	-54.6463	15.769	35.3331	-25.903	73.3878	3.55244	-36.3281	38.7642	6.5327	-30.6316	24.9055	22.0818	-10.3813	76.5025	-16.2365	-8.3215	47.1109	-4.3682	-4.74338	34.9456	17.8276	5.14247	126.978	0.745289	-8.99611	156.327	4.98182	16.7698	148.021	36.0506	-8.83184	
198	1.65	140.328	66.7005	12.1336	110.434	87.4556	8.12964	80.8828	90.7712	-2.32705	51.0983	85.253	-3.77512	94.3674	46.6149	-56.3329	59.116	45.4457	-64.6113	32.0114	58.8047	-49.7016	79.5558	19.7456	-55.0606	46.5723	32.3196	-61.073	19.7821	44.4626	-38.3001	74.1701	3.87036	-38.547	39.5426	14.4417	-38.7891	27.2198	30.2135	-19.4795	72.4933	-11.0555	-13.6359	44.9744	0.7152	-10.4602	32.3531	22.6721	-2.39544	127.15	0.0028748	-7.45729	151.789	1.39128	12.6745	148.294	30.2353	-6.25424	
199	1.65833	141.228	65.1077	8.15496	111.589	90.6713	1.45747	85.3841	91.9689	-8.95222	59.9073	89.8939	-9.95709	95.7533	44.61	-60.4562	69.5901	51.3013	-72.2546	42.0241	61.5872	-57.1877	83.3041	22.6238	-60.4261	54.0619	33.9689	-67.4474	24.6679	49.1482	-44.2167	75.2649	6.58948	-43.2603	44.2703	21.4881	-47.1772	27.593	37.3691	-23.6567	72.8525	-8.75589	-15.9308	44.5256	6.76674	-18.5501	34.644	31.9459	-10.2548	123.472	-3.13265	-10.2104	149.572	-2.1978	17.3797	152.044	31.0011	-8.51983	
200	1.66667	146.241	63.8024	10.5568	120.807	89.0978	3.73335	93.0097	95.8444	-11.9475	67.3209	96.8869	-15.4569	106.185	47.4294	-62.5505	75.238	53.2377	-75.79	50.6636	68.1847	-62.5293	87.3923	23.5822	-62.9908	58.8002	35.2284	-72.0144	31.8506	55.0065	-53.9244	77.384	8.60438	-47.5549	46.5258	23.9089	-51.2553	30.4407	44.2617	-30.1509	71.3411	-6.03003	-19.6732	47.1253	13.603	-25.0263	36.7962	39.5663	-16.9757	126.991	0.356077	-11.1214	146.951	-6.37883	20.885	151.758	25.5029	-7.05832	
201	1.675	153.086	62.6997	12.645	126.235	90.2898	-1.093	104.716	97.8019	-13.0418	76.6898	100.299	-20.6797	114.148	46.8137	-63.7632	83.2606	54.0173	-79.1329	60.8276	73.2204	-68.6437	93.331	23.7976	-64.1196	67.8343	41.7226	-79.1238	39.2144	64.5274	-61.4983	81.5361	9.75303	-48.3326	52.3922	25.0531	-57.5969	37.8299	51.5578	-42.7438	72.9523	-1.01514	-22.329	49.086	14.4707	-29.9737	41.2492	45.1798	-22.5719	122.69	-4.07817	-8.94564	144.805	-6.24771	18.2567	154.68	25.6664	-3.20647	
202	1.68333	153.761	59.653	10.5799	132.652	88.0003	-0.114505	109.649	98.9402	-17.6991	84.3139	97.9659	-25.1959	119.165	46.3569	-68.6517	91.4083	55.4876	-82.0425	67.8319	75.7382	-71.748	101.938	26.5124	-65.6946	72.0386	41.3509	-82.1889	50.6046	66.601	-71.5352	85.6623	14.0289	-54.1883	56.5123	31.0751	-63.2311	42.6077	52.9308	-49.7558	71.3366	1.6413	-26.1428	53.0476	21.1327	-35.4484	43.0565	49.5878	-28.7215	125.393	-4.99807	-7.73789	138.73	-9.3272	20.4279	154.342	20.752	-3.13738	
